<svg xmlns="http://www.w3.org/2000/svg"  viewBox="0 0 24 24" width="384px" height="384px"><linearGradient id="l_L5lsU0VonffVLmdnyxda" x1="5.611" x2="18.389" y1="6.561" y2="19.339" gradientUnits="userSpaceOnUse"><stop offset="0" stop-color="#fff" stop-opacity=".6"/><stop offset="1" stop-color="#fff" stop-opacity=".3"/></linearGradient><path fill="url(#l_L5lsU0VonffVLmdnyxda)" d="M14,4.231C14,4.231,14,4.231,14,4.231L14,3c0-1.105-0.895-2-2-2c-1.105,0-2,0.895-2,2v1.231 c0,0,0,0,0,0C5.994,5.141,3,8.718,3,13c0,4.971,4.029,9,9,9c4.971,0,9-4.029,9-9C21,8.718,18.006,5.141,14,4.231z"/><g><linearGradient id="l_L5lsU0VonffVLmdnyxdb" x1="3" x2="21" y1="11.5" y2="11.5" gradientUnits="userSpaceOnUse"><stop offset="0" stop-color="#fff" stop-opacity=".6"/><stop offset=".493" stop-color="#fff" stop-opacity="0"/><stop offset=".997" stop-color="#fff" stop-opacity=".3"/></linearGradient><path fill="url(#l_L5lsU0VonffVLmdnyxdb)" d="M12,1.5c0.827,0,1.5,0.673,1.5,1.5 l0,1.231l0,0.399l0.389,0.088C17.781,5.603,20.5,9.008,20.5,13c0,4.687-3.813,8.5-8.5,8.5S3.5,17.687,3.5,13 c0-3.992,2.718-7.397,6.611-8.282L10.5,4.63V4.231V3C10.5,2.173,11.173,1.5,12,1.5 M12,1c-1.105,0-2,0.895-2,2v1.231c0,0,0,0,0,0 c0,0,0,0,0,0c0,0,0,0,0,0v0C5.994,5.141,3,8.718,3,13c0,4.971,4.029,9,9,9c4.971,0,9-4.029,9-9c0-4.282-2.994-7.859-7-8.769 c0,0,0,0,0,0V3C14,1.895,13.105,1,12,1L12,1z"/></g><g><linearGradient id="l_L5lsU0VonffVLmdnyxdc" x1="9.368" x2="14.633" y1="10.368" y2="15.633" gradientUnits="userSpaceOnUse"><stop offset="0" stop-color="#fff" stop-opacity=".6"/><stop offset="1" stop-color="#fff" stop-opacity=".3"/></linearGradient><path fill="url(#l_L5lsU0VonffVLmdnyxdc)" d="M15.484,8.062l-5.174,1.724 c-0.72,0.24-1.285,0.805-1.525,1.525l-1.724,5.174c-0.3,0.899,0.555,1.754,1.455,1.455l5.174-1.724 c0.72-0.24,1.285-0.805,1.525-1.525l1.724-5.173C17.238,8.617,16.383,7.761,15.484,8.062z M12,15c-1.105,0-2-0.895-2-2 c0-1.105,0.895-2,2-2c1.105,0,2,0.895,2,2C14,14.105,13.105,15,12,15z"/></g></svg>