<svg xmlns="http://www.w3.org/2000/svg"  viewBox="0 0 24 24" width="384px" height="384px" baseProfile="basic"><linearGradient id="Jsu0hpJR1pyUmPISRFDn8a" x1="4.929" x2="19.071" y1="4.929" y2="19.071" gradientUnits="userSpaceOnUse"><stop offset="0" stop-color="#fff" stop-opacity=".6"/><stop offset="1" stop-color="#fff" stop-opacity=".3"/></linearGradient><path fill="url(#Jsu0hpJR1pyUmPISRFDn8a)" d="M12,2C6.477,2,2,6.477,2,12c0,5.523,4.477,10,10,10s10-4.477,10-10C22,6.477,17.523,2,12,2z M12,15c-1.657,0-3-1.343-3-3s1.343-3,3-3s3,1.343,3,3S13.657,15,12,15z"/><linearGradient id="Jsu0hpJR1pyUmPISRFDn8b" x1="4.929" x2="19.071" y1="4.929" y2="19.071" gradientUnits="userSpaceOnUse"><stop offset="0" stop-color="#fff" stop-opacity=".6"/><stop offset=".493" stop-color="#fff" stop-opacity="0"/><stop offset=".997" stop-color="#fff" stop-opacity=".3"/></linearGradient><path fill="url(#Jsu0hpJR1pyUmPISRFDn8b)" d="M12,2.5c5.238,0,9.5,4.262,9.5,9.5s-4.262,9.5-9.5,9.5S2.5,17.238,2.5,12S6.762,2.5,12,2.5 M12,15.5c1.93,0,3.5-1.57,3.5-3.5S13.93,8.5,12,8.5S8.5,10.07,8.5,12S10.07,15.5,12,15.5 M12,2C6.477,2,2,6.477,2,12	c0,5.523,4.477,10,10,10s10-4.477,10-10C22,6.477,17.523,2,12,2L12,2z M12,15c-1.657,0-3-1.343-3-3s1.343-3,3-3s3,1.343,3,3	S13.657,15,12,15L12,15z"/><linearGradient id="Jsu0hpJR1pyUmPISRFDn8c" x1="11.607" x2="20.961" y1="3.038" y2="12.392" gradientUnits="userSpaceOnUse"><stop offset="0" stop-color="#fff" stop-opacity=".7"/><stop offset=".519" stop-color="#fff" stop-opacity=".45"/><stop offset="1" stop-color="#fff" stop-opacity=".55"/></linearGradient><path fill="url(#Jsu0hpJR1pyUmPISRFDn8c)" d="M13.123,2.062C12.527,1.996,12,2.457,12,3.057c0,1.402,0,3.934,0,5.947	c1.65-0.002,2.998,1.346,3,2.996h5.938c0.6,0,1.067-0.527,1-1.123C21.421,6.251,17.749,2.579,13.123,2.062z"/></svg>