<svg xmlns="http://www.w3.org/2000/svg"  viewBox="0 0 24 24" width="384px" height="384px"><linearGradient id="WWnza1HNDdX9wWBgn2L-ha" x1="6.47" x2="17.53" y1="5.737" y2="16.798" gradientUnits="userSpaceOnUse"><stop offset="0" stop-color="#fff" stop-opacity=".6"/><stop offset="1" stop-color="#fff" stop-opacity=".3"/></linearGradient><path fill="url(#WWnza1HNDdX9wWBgn2L-ha)" d="M15.521,3.74l-2.728-2.182c-0.464-0.371-1.122-0.371-1.586,0L8.479,3.74 C7.542,4.49,8.072,6.001,9.272,6.001H10V19.5c0,1.104,0.895,2,2,2c1.105,0,2-0.896,2-2V6.001h0.728 C15.928,6.001,16.458,4.49,15.521,3.74z"/><linearGradient id="WWnza1HNDdX9wWBgn2L-hb" x1="8" x2="16" y1="11.39" y2="11.39" gradientUnits="userSpaceOnUse"><stop offset="0" stop-color="#fff" stop-opacity=".6"/><stop offset=".493" stop-color="#fff" stop-opacity="0"/><stop offset=".997" stop-color="#fff" stop-opacity=".3"/></linearGradient><path fill="url(#WWnza1HNDdX9wWBgn2L-hb)" d="M12,1.78c0.174,0,0.345,0.06,0.481,0.169 l2.728,2.182c0.314,0.251,0.333,0.607,0.245,0.856c-0.087,0.249-0.324,0.515-0.726,0.515H14l-0.5,0.5V19.5 c0,0.827-0.673,1.5-1.5,1.5c-0.827,0-1.5-0.673-1.5-1.5V6.001l-0.5-0.5H9.272c-0.402,0-0.639-0.266-0.726-0.515 C8.459,4.737,8.477,4.382,8.791,4.131l2.728-2.182C11.655,1.84,11.826,1.78,12,1.78 M12,1.28c-0.281,0-0.561,0.093-0.793,0.278 L8.479,3.74C7.542,4.49,8.072,6.001,9.272,6.001H10V19.5c0,1.104,0.895,2,2,2c1.105,0,2-0.896,2-2V6.001h0.728 c1.2,0,1.73-1.511,0.793-2.261l-2.728-2.182C12.561,1.372,12.281,1.28,12,1.28L12,1.28z"/><g><linearGradient id="WWnza1HNDdX9wWBgn2L-hc" x1=".345" x2="8.068" y1="11.861" y2="19.585" gradientUnits="userSpaceOnUse"><stop offset="0" stop-color="#fff" stop-opacity=".6"/><stop offset="1" stop-color="#fff" stop-opacity=".3"/></linearGradient><path fill="url(#WWnza1HNDdX9wWBgn2L-hc)" d="M5.793,8.557 c-0.464-0.371-1.122-0.371-1.586,0l-2.728,2.182C0.542,11.489,1.072,13,2.272,13H3v5.999c-1.104,0-2,0.896-2,2s0.896,2,2,2 c2.206,0,4-1.794,4-4V13h0.728c1.2,0,1.73-1.511,0.793-2.261L5.793,8.557z"/><linearGradient id="WWnza1HNDdX9wWBgn2L-hd" x1="1" x2="9" y1="15.639" y2="15.639" gradientUnits="userSpaceOnUse"><stop offset="0" stop-color="#fff" stop-opacity=".6"/><stop offset=".493" stop-color="#fff" stop-opacity="0"/><stop offset=".997" stop-color="#fff" stop-opacity=".3"/></linearGradient><path fill="url(#WWnza1HNDdX9wWBgn2L-hd)" d="M5,8.779c0.174,0,0.345,0.06,0.481,0.169 l2.728,2.182c0.314,0.251,0.333,0.607,0.245,0.856C8.367,12.234,8.13,12.5,7.728,12.5H7L6.5,13v5.999c0,1.93-1.57,3.5-3.5,3.5 c-0.827,0-1.5-0.673-1.5-1.5s0.673-1.5,1.5-1.5l0.5-0.5V13L3,12.5H2.272c-0.402,0-0.639-0.266-0.726-0.515 c-0.087-0.249-0.069-0.604,0.245-0.856l2.728-2.182C4.655,8.839,4.826,8.779,5,8.779 M5,8.279c-0.281,0-0.561,0.093-0.793,0.278 l-2.728,2.182C0.542,11.489,1.072,13,2.272,13H3v5.999c-1.104,0-2,0.896-2,2s0.896,2,2,2c2.206,0,4-1.794,4-4V13h0.728 c1.2,0,1.73-1.511,0.793-2.261L5.793,8.557C5.561,8.371,5.281,8.279,5,8.279L5,8.279z"/></g><g><linearGradient id="WWnza1HNDdX9wWBgn2L-he" x1="15.138" x2="24.449" y1="11.068" y2="20.379" gradientUnits="userSpaceOnUse"><stop offset="0" stop-color="#fff" stop-opacity=".6"/><stop offset="1" stop-color="#fff" stop-opacity=".3"/></linearGradient><path fill="url(#WWnza1HNDdX9wWBgn2L-he)" d="M21,19v-6h0.728 c1.2,0,1.73-1.511,0.793-2.26l-2.728-2.183c-0.464-0.371-1.122-0.371-1.586,0l-2.728,2.183c-0.937,0.75-0.407,2.26,0.793,2.26H17 v6c0,2.206,1.794,4,4,4c1.104,0,2-0.896,2-2S22.104,19,21,19z"/><linearGradient id="WWnza1HNDdX9wWBgn2L-hf" x1="15" x2="23" y1="15.639" y2="15.639" gradientUnits="userSpaceOnUse"><stop offset="0" stop-color="#fff" stop-opacity=".6"/><stop offset=".493" stop-color="#fff" stop-opacity="0"/><stop offset=".997" stop-color="#fff" stop-opacity=".3"/></linearGradient><path fill="url(#WWnza1HNDdX9wWBgn2L-hf)" d="M19,8.779 c0.174,0,0.345,0.06,0.481,0.168l2.728,2.183c0.314,0.251,0.333,0.607,0.245,0.855c-0.087,0.249-0.324,0.515-0.726,0.515H21 L20.5,13v6l0.5,0.5c0.827,0,1.5,0.673,1.5,1.5s-0.673,1.5-1.5,1.5c-1.93,0-3.5-1.57-3.5-3.5v-6L17,12.5h-0.728 c-0.402,0-0.639-0.266-0.726-0.515c-0.087-0.249-0.069-0.604,0.245-0.855l2.728-2.182C18.655,8.839,18.826,8.779,19,8.779 M19,8.279c-0.281,0-0.561,0.093-0.793,0.278l-2.728,2.183c-0.937,0.75-0.407,2.26,0.793,2.26H17v6c0,2.206,1.794,4,4,4 c1.104,0,2-0.896,2-2s-0.896-2-2-2v-6h0.728c1.2,0,1.73-1.511,0.793-2.26l-2.728-2.183C19.561,8.371,19.281,8.279,19,8.279 L19,8.279z"/></g></svg>