<svg xmlns="http://www.w3.org/2000/svg"  viewBox="0 0 48 48" width="144px" height="144px"><path d="M 15.638672 6 C 12.527135 6 9.8339356 8.2268231 9.2519531 11.283203 L 7.9726562 18 L 6.5 18 A 1.50015 1.50015 0 0 0 5.0273438 19.78125 L 8.2519531 36.716797 C 8.8350684 39.772321 11.527135 42 14.638672 42 L 33.361328 42 C 36.472865 42 39.166064 39.773177 39.748047 36.716797 L 42.972656 19.78125 A 1.50015 1.50015 0 0 0 41.5 18 L 40.027344 18 L 38.748047 11.283203 C 38.166064 8.2268231 35.472865 6 32.361328 6 L 15.638672 6 z M 15.638672 9 L 32.361328 9 C 34.051791 9 35.484764 10.18413 35.800781 11.84375 A 1.50015 1.50015 0 0 0 35.800781 11.845703 L 36.972656 18 L 11.027344 18 L 12.199219 11.845703 A 1.50015 1.50015 0 0 0 12.199219 11.84375 C 12.515236 10.184177 13.948209 9 15.638672 9 z M 8.3125 21 L 8.9667969 21 A 1.50015 1.50015 0 0 0 9.453125 21 L 38.550781 21 A 1.50015 1.50015 0 0 0 39.03125 21 L 39.6875 21 L 36.800781 36.15625 C 36.484764 37.81587 35.051791 39 33.361328 39 L 14.638672 39 C 12.948808 39 11.516781 37.8158 11.199219 36.15625 L 11.199219 36.154297 L 8.3125 21 z M 15.458984 23.978516 A 1.50015 1.50015 0 0 0 14.009766 25.666016 L 15.009766 34.666016 A 1.50015 1.50015 0 1 0 17.990234 34.333984 L 16.990234 25.333984 A 1.50015 1.50015 0 0 0 15.458984 23.978516 z M 21.476562 23.978516 A 1.50015 1.50015 0 0 0 20 25.5 L 20 34.5 A 1.50015 1.50015 0 1 0 23 34.5 L 23 25.5 A 1.50015 1.50015 0 0 0 21.476562 23.978516 z M 26.476562 23.978516 A 1.50015 1.50015 0 0 0 25 25.5 L 25 34.5 A 1.50015 1.50015 0 1 0 28 34.5 L 28 25.5 A 1.50015 1.50015 0 0 0 26.476562 23.978516 z M 32.496094 23.978516 A 1.50015 1.50015 0 0 0 31.009766 25.333984 L 30.009766 34.333984 A 1.50015 1.50015 0 1 0 32.990234 34.666016 L 33.990234 25.666016 A 1.50015 1.50015 0 0 0 32.496094 23.978516 z"/></svg>