<svg xmlns="http://www.w3.org/2000/svg"  viewBox="0 0 24 24" width="384px" height="384px"><linearGradient id="qLmmcM2THa-4-X8N2Q-NOa" x1="4.409" x2="19.802" y1="4.348" y2="19.741" gradientUnits="userSpaceOnUse"><stop offset="0" stop-color="#fff" stop-opacity=".6"/><stop offset="1" stop-color="#fff" stop-opacity=".3"/></linearGradient><path fill="url(#qLmmcM2THa-4-X8N2Q-NOa)" d="M18,4h-4c0-1.105-0.895-2-2-2c-1.105,0-2,0.895-2,2H6C4.343,4,3,5.343,3,7v8 c0,1.657,1.343,3,3,3h1.579l-1.25,1.563c-0.518,0.647-0.413,1.591,0.234,2.108C6.839,21.893,7.17,22,7.499,22 c0.44,0,0.876-0.193,1.172-0.563L11.421,18H13l2.75,3.437C16.046,21.807,16.482,22,16.922,22c0.329,0,0.66-0.107,0.936-0.329 c0.647-0.518,0.752-1.461,0.234-2.108L16.842,18H18c1.657,0,3-1.343,3-3V7C21,5.343,19.657,4,18,4z"/><linearGradient id="qLmmcM2THa-4-X8N2Q-NOb" x1="3" x2="21" y1="12" y2="12" gradientUnits="userSpaceOnUse"><stop offset="0" stop-color="#fff" stop-opacity=".6"/><stop offset=".493" stop-color="#fff" stop-opacity="0"/><stop offset=".997" stop-color="#fff" stop-opacity=".3"/></linearGradient><path fill="url(#qLmmcM2THa-4-X8N2Q-NOb)" d="M12,2.5c0.827,0,1.5,0.673,1.5,1.5v0.5 H14h4c1.378,0,2.5,1.121,2.5,2.5v8c0,1.379-1.122,2.5-2.5,2.5h-1.158h-1.04l0.65,0.812l1.25,1.563 c0.344,0.431,0.274,1.061-0.156,1.406c-0.179,0.143-0.395,0.219-0.624,0.219c-0.306,0-0.591-0.137-0.782-0.375l-2.75-3.437 L13.24,17.5H13h-1.579h-0.24l-0.15,0.188l-2.749,3.437C8.09,21.363,7.805,21.5,7.499,21.5c-0.229,0-0.445-0.076-0.624-0.219 c-0.431-0.345-0.501-0.975-0.156-1.406l1.25-1.563l0.65-0.812h-1.04H6c-1.378,0-2.5-1.121-2.5-2.5V7c0-1.379,1.122-2.5,2.5-2.5h4 h0.5V4C10.5,3.173,11.173,2.5,12,2.5 M12,2c-1.105,0-2,0.895-2,2H6C4.343,4,3,5.343,3,7v8c0,1.657,1.343,3,3,3h1.579l-1.25,1.563 c-0.518,0.647-0.413,1.591,0.234,2.108C6.839,21.893,7.17,22,7.499,22c0.44,0,0.876-0.193,1.172-0.563L11.421,18H13l2.75,3.437 C16.046,21.807,16.482,22,16.922,22c0.329,0,0.66-0.107,0.936-0.329c0.647-0.518,0.752-1.461,0.234-2.108L16.842,18H18 c1.657,0,3-1.343,3-3V7c0-1.657-1.343-3-3-3h-4C14,2.895,13.105,2,12,2L12,2z"/><g><linearGradient id="qLmmcM2THa-4-X8N2Q-NOc" x1="6.22" x2="8.78" y1="11.659" y2="14.22" gradientUnits="userSpaceOnUse"><stop offset="0" stop-color="#fff" stop-opacity=".6"/><stop offset="1" stop-color="#fff" stop-opacity=".3"/></linearGradient><path fill="url(#qLmmcM2THa-4-X8N2Q-NOc)" d="M9,14H6v-1.5C6,11.672,6.672,11,7.5,11h0 C8.328,11,9,11.672,9,12.5V14z"/></g><g><linearGradient id="qLmmcM2THa-4-X8N2Q-NOd" x1="10.22" x2="13.78" y1="10.159" y2="13.72" gradientUnits="userSpaceOnUse"><stop offset="0" stop-color="#fff" stop-opacity=".6"/><stop offset="1" stop-color="#fff" stop-opacity=".3"/></linearGradient><path fill="url(#qLmmcM2THa-4-X8N2Q-NOd)" d="M13.5,14h-3v-3.5 C10.5,9.672,11.172,9,12,9h0c0.828,0,1.5,0.672,1.5,1.5V14z"/></g><g><linearGradient id="qLmmcM2THa-4-X8N2Q-NOe" x1="14.22" x2="18.78" y1="8.659" y2="13.22" gradientUnits="userSpaceOnUse"><stop offset="0" stop-color="#fff" stop-opacity=".6"/><stop offset="1" stop-color="#fff" stop-opacity=".3"/></linearGradient><path fill="url(#qLmmcM2THa-4-X8N2Q-NOe)" d="M18,14h-3V8.5C15,7.672,15.672,7,16.5,7h0 C17.328,7,18,7.672,18,8.5V14z"/></g></svg>