<svg xmlns="http://www.w3.org/2000/svg"  viewBox="0 0 24 24" width="384px" height="384px"><linearGradient id="GSU9yiL-wCv6cq3LkBYjMa" x1="4.276" x2="19.724" y1="4.776" y2="20.224" gradientUnits="userSpaceOnUse"><stop offset="0" stop-color="#fff" stop-opacity=".6"/><stop offset="1" stop-color="#fff" stop-opacity=".3"/></linearGradient><path fill="url(#GSU9yiL-wCv6cq3LkBYjMa)" d="M21,9V7.5C21,5.57,19.43,4,17.5,4h-2.35C14.587,2.821,13.394,2,12,2S9.413,2.821,8.85,4H6.5 C4.57,4,3,5.57,3,7.5V9c-1.105,0-2,0.895-2,2v3c0,1.105,0.895,2,2,2v1.5C3,19.43,4.57,21,6.5,21h2.35c0.563,1.179,1.756,2,3.15,2 s2.587-0.821,3.15-2h2.35c1.93,0,3.5-1.57,3.5-3.5V16c1.105,0,2-0.895,2-2v-3C23,9.895,22.105,9,21,9z M18,9c-1.105,0-2,0.895-2,2 v3c0,1.105,0.895,2,2,2v1.5c0,0.275-0.225,0.5-0.5,0.5h-2.35c-0.563-1.179-1.756-2-3.15-2s-2.587,0.821-3.15,2H6.5 C6.225,18,6,17.775,6,17.5V16c1.105,0,2-0.895,2-2v-3c0-1.105-0.895-2-2-2V7.5C6,7.225,6.225,7,6.5,7h2.35 C9.413,8.179,10.606,9,12,9s2.587-0.821,3.15-2h2.35C17.775,7,18,7.225,18,7.5V9z"/><linearGradient id="GSU9yiL-wCv6cq3LkBYjMb" x1="1" x2="23" y1="12.5" y2="12.5" gradientUnits="userSpaceOnUse"><stop offset="0" stop-color="#fff" stop-opacity=".6"/><stop offset=".493" stop-color="#fff" stop-opacity="0"/><stop offset=".997" stop-color="#fff" stop-opacity=".3"/></linearGradient><path fill="url(#GSU9yiL-wCv6cq3LkBYjMb)" d="M12,2.5c1.16,0,2.194,0.657,2.699,1.715 L14.835,4.5h0.315h2.35c1.654,0,3,1.346,3,3V9v0.5H21c0.827,0,1.5,0.673,1.5,1.5v3c0,0.827-0.673,1.5-1.5,1.5h-0.5V16v1.5 c0,1.654-1.346,3-3,3h-2.35h-0.315l-0.136,0.285C14.194,21.843,13.16,22.5,12,22.5s-2.194-0.657-2.699-1.715L9.165,20.5H8.85H6.5 c-1.654,0-3-1.346-3-3V16v-0.5H3c-0.827,0-1.5-0.673-1.5-1.5v-3c0-0.827,0.673-1.5,1.5-1.5h0.5V9V7.5c0-1.654,1.346-3,3-3h2.35 h0.315l0.136-0.285C9.806,3.157,10.84,2.5,12,2.5 M12,8.5c-1.16,0-2.194-0.657-2.699-1.715L9.165,6.5H8.85H6.5 c-0.551,0-1,0.449-1,1V9v0.5H6c0.827,0,1.5,0.673,1.5,1.5v3c0,0.827-0.673,1.5-1.5,1.5H5.5V16v1.5c0,0.551,0.449,1,1,1h2.35h0.315 l0.136-0.285C9.806,17.157,10.84,16.5,12,16.5s2.194,0.657,2.699,1.715l0.136,0.285h0.315h2.35c0.551,0,1-0.449,1-1V16v-0.5H18 c-0.827,0-1.5-0.673-1.5-1.5v-3c0-0.827,0.673-1.5,1.5-1.5h0.5V9V7.5c0-0.551-0.449-1-1-1h-2.35h-0.315l-0.136,0.285 C14.194,7.843,13.16,8.5,12,8.5 M12,2c-1.394,0-2.587,0.821-3.15,2H6.5C4.57,4,3,5.57,3,7.5V9c-1.105,0-2,0.895-2,2v3 c0,1.105,0.895,2,2,2v1.5C3,19.43,4.57,21,6.5,21h2.35c0.563,1.179,1.756,2,3.15,2s2.587-0.821,3.15-2h2.35 c1.93,0,3.5-1.57,3.5-3.5V16c1.105,0,2-0.895,2-2v-3c0-1.105-0.895-2-2-2V7.5C21,5.57,19.43,4,17.5,4h-2.35 C14.587,2.821,13.394,2,12,2L12,2z M12,9c1.394,0,2.587-0.821,3.15-2h2.35C17.775,7,18,7.225,18,7.5V9c-1.105,0-2,0.895-2,2v3 c0,1.105,0.895,2,2,2v1.5c0,0.275-0.225,0.5-0.5,0.5h-2.35c-0.563-1.179-1.756-2-3.15-2s-2.587,0.821-3.15,2H6.5 C6.225,18,6,17.775,6,17.5V16c1.105,0,2-0.895,2-2v-3c0-1.105-0.895-2-2-2V7.5C6,7.225,6.225,7,6.5,7h2.35 C9.413,8.179,10.606,9,12,9L12,9z"/><linearGradient id="GSU9yiL-wCv6cq3LkBYjMc" x1="1.586" x2="7.414" y1="9.586" y2="15.414" gradientUnits="userSpaceOnUse"><stop offset="0" stop-color="#fff" stop-opacity=".6"/><stop offset="1" stop-color="#fff" stop-opacity=".3"/></linearGradient><path fill="url(#GSU9yiL-wCv6cq3LkBYjMc)" d="M6,16H3c-1.105,0-2-0.895-2-2v-3 c0-1.105,0.895-2,2-2h3c1.105,0,2,0.895,2,2v3C8,15.105,7.105,16,6,16z"/><g><linearGradient id="GSU9yiL-wCv6cq3LkBYjMd" x1="16.586" x2="22.414" y1="9.586" y2="15.414" gradientUnits="userSpaceOnUse"><stop offset="0" stop-color="#fff" stop-opacity=".6"/><stop offset="1" stop-color="#fff" stop-opacity=".3"/></linearGradient><path fill="url(#GSU9yiL-wCv6cq3LkBYjMd)" d="M21,16h-3c-1.105,0-2-0.895-2-2v-3 c0-1.105,0.895-2,2-2h3c1.105,0,2,0.895,2,2v3C23,15.105,22.105,16,21,16z"/></g><g><linearGradient id="GSU9yiL-wCv6cq3LkBYjMe" x1="9.525" x2="14.475" y1="3.025" y2="7.975" gradientUnits="userSpaceOnUse"><stop offset="0" stop-color="#fff" stop-opacity=".6"/><stop offset="1" stop-color="#fff" stop-opacity=".3"/></linearGradient><circle cx="12" cy="5.5" r="3.5" fill="url(#GSU9yiL-wCv6cq3LkBYjMe)"/></g><g><linearGradient id="GSU9yiL-wCv6cq3LkBYjMf" x1="9.525" x2="14.475" y1="17.025" y2="21.975" gradientUnits="userSpaceOnUse"><stop offset="0" stop-color="#fff" stop-opacity=".6"/><stop offset="1" stop-color="#fff" stop-opacity=".3"/></linearGradient><circle cx="12" cy="19.5" r="3.5" fill="url(#GSU9yiL-wCv6cq3LkBYjMf)"/></g></svg>