<svg xmlns="http://www.w3.org/2000/svg"  viewBox="0 0 24 24" width="384px" height="384px"><linearGradient id="TXipptZ2YGtgS20AnT8qxa" x1="4.929" x2="19.071" y1="4.929" y2="19.071" gradientUnits="userSpaceOnUse"><stop offset="0" stop-color="#fff" stop-opacity=".6"/><stop offset="1" stop-color="#fff" stop-opacity=".3"/></linearGradient><circle cx="12" cy="12" r="10" fill="url(#TXipptZ2YGtgS20AnT8qxa)"/><linearGradient id="TXipptZ2YGtgS20AnT8qxb" x1="2" x2="22" y1="12" y2="12" gradientUnits="userSpaceOnUse"><stop offset="0" stop-color="#fff" stop-opacity=".6"/><stop offset=".493" stop-color="#fff" stop-opacity="0"/><stop offset=".997" stop-color="#fff" stop-opacity=".3"/></linearGradient><path fill="url(#TXipptZ2YGtgS20AnT8qxb)" d="M12,2.5c5.238,0,9.5,4.262,9.5,9.5 s-4.262,9.5-9.5,9.5S2.5,17.238,2.5,12S6.762,2.5,12,2.5 M12,2C6.477,2,2,6.477,2,12s4.477,10,10,10c5.523,0,10-4.477,10-10 S17.523,2,12,2L12,2z"/><g><linearGradient id="TXipptZ2YGtgS20AnT8qxc" x1="8.993" x2="15.513" y1="8.722" y2="15.243" gradientUnits="userSpaceOnUse"><stop offset="0" stop-color="#fff" stop-opacity=".6"/><stop offset="1" stop-color="#fff" stop-opacity=".3"/></linearGradient><path fill="url(#TXipptZ2YGtgS20AnT8qxc)" d="M12.245,17 c-3.018,0-3.96-3.184-3.96-5.001c0-2.1,0.989-4.999,3.96-4.999c0.869,0,1.512,0.225,1.97,0.489c0.52,0.3,0.632,0.962,0.268,1.419 l0,0c-0.315,0.395-0.879,0.492-1.357,0.283c-0.191-0.084-0.424-0.141-0.708-0.141c-0.597,0-1.843,0.441-1.843,2.949 s1.215,2.949,1.858,2.949c0.261,0,0.492-0.067,0.686-0.163c0.464-0.228,1.03-0.141,1.358,0.239l0.002,0.002 c0.382,0.444,0.294,1.104-0.208,1.427C13.813,16.747,13.158,17,12.245,17z"/></g></svg>